<?xml version="1.0" encoding="UTF-8" standalone="no"?>
<!-- Generator: Adobe Illustrator 16.0.0, SVG Export Plug-In . SVG Version: 6.00 Build 0)  -->

<svg
   version="1.1"
   id="svg275"
   inkscape:version="1.2.1 (9c6d41e410, 2022-07-14)"
   sodipodi:docname="AFD.svg"
   x="0px"
   y="0px"
   width="10.16mm"
   height="128.49931mm"
   viewBox="0 0 10.16 128.49931"
   enable-background="new 0 0 28.8 364.25"
   xml:space="preserve"
   xmlns:inkscape="http://www.inkscape.org/namespaces/inkscape"
   xmlns:sodipodi="http://sodipodi.sourceforge.net/DTD/sodipodi-0.dtd"
   xmlns="http://www.w3.org/2000/svg"
   xmlns:svg="http://www.w3.org/2000/svg"
   xmlns:rdf="http://www.w3.org/1999/02/22-rdf-syntax-ns#"
   xmlns:cc="http://creativecommons.org/ns#"
   xmlns:dc="http://purl.org/dc/elements/1.1/"><defs
   id="defs69" />
<sodipodi:namedview
   inkscape:cy="248.96226"
   inkscape:cx="-191.87163"
   inkscape:zoom="1.6990527"
   showgrid="false"
   borderopacity="0.25"
   bordercolor="#000000"
   pagecolor="#ffffff"
   id="namedview277"
   inkscape:document-units="mm"
   inkscape:window-height="1027"
   inkscape:window-width="1920"
   inkscape:pagecheckerboard="0"
   inkscape:window-maximized="1"
   inkscape:pageopacity="0.0"
   inkscape:showpageshadow="2"
   inkscape:current-layer="Panel"
   inkscape:window-y="-8"
   inkscape:window-x="-8"
   inkscape:deskcolor="#d1d1d1">
	</sodipodi:namedview>
<g
   id="Panel"
   transform="scale(0.12445032)">
	<rect
   id="Panel_BG"
   fill="#e6e7e8"
   width="81.639"
   height="1032.5179"
   x="0"
   y="0" />
	<rect
   id="Name_Decor"
   y="51.023998"
   fill="#939598"
   width="81.639"
   height="20.41"
   x="0" />
	
	<g
   id="In_Label_1">
		<g
   id="g219">
			<path
   id="path217"
   fill="#000100"
   d="m 40.34,184.011 v -10.438 l -3.356,1.233 v -1.896 l 5.391,-1.999 h 0.133 V 184.01 H 40.34 Z" />
		</g>
		<polyline
   id="In_Decor_1"
   fill="none"
   stroke="#231f20"
   stroke-width="0.6"
   stroke-miterlimit="10"
   points="15.885,174.055     15.885,188.418 20.752,193.495 60.885,193.495 65.752,188.418 65.752,174.055   " />
	</g>
	<g
   id="Out_Label_1">
		<polyline
   id="Out_Decor_1"
   fill="#1d76bb"
   points="16.71,233.977 16.71,301.784 21.577,306.856 60.06,306.856 64.927,301.784     64.927,233.977   " />
		<g
   id="g226">
			<path
   id="path224"
   fill="#ffffff"
   d="m 40.34,297.351 v -10.438 l -3.356,1.233 v -1.896 l 5.386,-1.999 h 0.138 V 297.35 H 40.34 Z" />
		</g>
	</g>
	<g
   id="In_Label_2">
		<g
   id="g231">
			<path
   id="path229"
   fill="#000100"
   d="m 36.239,408.513 v -1.495 l 4.266,-4.64 c 0.354,-0.392 0.649,-0.743 0.89,-1.049 0.238,-0.309 0.433,-0.592 0.584,-0.85 0.144,-0.259 0.246,-0.502 0.307,-0.727 0.064,-0.224 0.094,-0.45 0.094,-0.677 0,-0.307 -0.044,-0.584 -0.136,-0.839 -0.087,-0.25 -0.22,-0.465 -0.396,-0.651 -0.176,-0.177 -0.383,-0.317 -0.627,-0.419 -0.241,-0.101 -0.514,-0.155 -0.814,-0.155 -0.382,0 -0.717,0.057 -1.001,0.165 -0.28,0.107 -0.515,0.26 -0.7,0.458 -0.19,0.21 -0.334,0.462 -0.43,0.76 -0.097,0.298 -0.144,0.635 -0.144,1.012 h -2.161 c 0,-0.569 0.105,-1.107 0.314,-1.612 0.21,-0.504 0.511,-0.95 0.9,-1.329 0.382,-0.378 0.853,-0.678 1.406,-0.9 0.555,-0.22 1.172,-0.331 1.859,-0.331 0.641,0 1.217,0.093 1.72,0.28 0.505,0.188 0.934,0.443 1.283,0.771 0.338,0.329 0.603,0.727 0.781,1.186 0.177,0.455 0.271,0.963 0.271,1.513 0,0.414 -0.066,0.814 -0.205,1.201 -0.133,0.389 -0.316,0.77 -0.551,1.146 -0.238,0.379 -0.523,0.763 -0.85,1.142 -0.327,0.386 -0.681,0.779 -1.067,1.188 l -2.914,3.116 h 6.096 v 1.736 z" />
		</g>
		<polyline
   id="In_Decor_2"
   fill="none"
   stroke="#231f20"
   stroke-width="0.6"
   stroke-miterlimit="10"
   points="15.885,398.562     15.885,412.922 20.752,417.999 60.885,417.999 65.752,412.922 65.752,398.562   " />
	</g>
	<g
   id="Out_Label_2">
		<polyline
   id="Out_Decor_2"
   fill="#1d76bb"
   points="16.71,458.482 16.71,526.29 21.577,531.356 60.06,531.356 64.927,526.29     64.927,458.482   " />
		<g
   id="g238">
			<path
   id="path236"
   fill="#ffffff"
   d="m 36.239,521.855 v -1.495 l 4.263,-4.637 c 0.354,-0.392 0.649,-0.743 0.89,-1.049 0.238,-0.309 0.433,-0.592 0.584,-0.85 0.144,-0.259 0.246,-0.502 0.31,-0.727 0.061,-0.223 0.094,-0.45 0.094,-0.677 0,-0.306 -0.047,-0.584 -0.138,-0.839 -0.087,-0.249 -0.22,-0.465 -0.396,-0.649 -0.173,-0.179 -0.383,-0.318 -0.624,-0.419 -0.244,-0.102 -0.516,-0.156 -0.814,-0.156 -0.385,0 -0.717,0.057 -1.001,0.165 -0.284,0.108 -0.515,0.26 -0.7,0.46 -0.192,0.209 -0.336,0.461 -0.43,0.76 -0.097,0.298 -0.144,0.634 -0.144,1.012 h -2.161 c 0,-0.57 0.105,-1.109 0.314,-1.614 0.208,-0.507 0.511,-0.949 0.897,-1.329 0.385,-0.378 0.855,-0.678 1.409,-0.898 0.552,-0.221 1.172,-0.332 1.856,-0.332 0.644,0 1.217,0.094 1.72,0.281 0.505,0.187 0.932,0.442 1.28,0.771 0.343,0.328 0.603,0.725 0.783,1.185 0.18,0.457 0.269,0.963 0.269,1.514 0,0.412 -0.066,0.813 -0.199,1.201 -0.138,0.388 -0.318,0.768 -0.554,1.145 -0.241,0.381 -0.526,0.763 -0.853,1.143 -0.324,0.385 -0.678,0.779 -1.064,1.188 l -2.911,3.112 h 6.096 v 1.736 h -8.776 z" />
		</g>
	</g>
	<g
   id="In_Label_3">
		<g
   id="g243">
			<path
   id="path241"
   fill="#000100"
   d="m 40.252,625.497 c 0.382,0 0.72,-0.055 1.006,-0.161 0.287,-0.105 0.525,-0.252 0.711,-0.443 0.173,-0.169 0.305,-0.379 0.399,-0.628 0.094,-0.249 0.138,-0.518 0.138,-0.806 0,-0.31 -0.042,-0.59 -0.127,-0.836 -0.089,-0.246 -0.215,-0.454 -0.385,-0.631 -0.167,-0.161 -0.379,-0.288 -0.635,-0.376 -0.255,-0.089 -0.547,-0.133 -0.878,-0.133 -0.296,0 -0.565,0.039 -0.814,0.127 -0.249,0.086 -0.462,0.21 -0.644,0.376 -0.184,0.161 -0.332,0.354 -0.437,0.581 -0.104,0.227 -0.158,0.482 -0.158,0.767 h -2.147 c 0,-0.523 0.102,-1.005 0.313,-1.44 0.209,-0.437 0.501,-0.819 0.872,-1.143 0.375,-0.316 0.814,-0.565 1.322,-0.747 0.507,-0.177 1.063,-0.271 1.669,-0.271 0.619,0 1.185,0.083 1.704,0.238 0.522,0.163 0.965,0.399 1.33,0.709 0.371,0.316 0.659,0.709 0.864,1.168 0.199,0.465 0.305,1.002 0.305,1.608 0,0.274 -0.039,0.54 -0.122,0.811 -0.08,0.271 -0.202,0.531 -0.365,0.781 -0.163,0.249 -0.365,0.476 -0.609,0.692 -0.249,0.216 -0.534,0.401 -0.866,0.548 0.39,0.133 0.72,0.305 0.994,0.52 0.271,0.21 0.498,0.448 0.67,0.714 0.177,0.271 0.299,0.559 0.376,0.869 0.08,0.31 0.122,0.628 0.122,0.958 0,0.612 -0.116,1.157 -0.338,1.633 -0.227,0.476 -0.534,0.88 -0.925,1.201 -0.393,0.329 -0.864,0.581 -1.398,0.753 -0.536,0.172 -1.117,0.255 -1.738,0.255 -0.563,0 -1.109,-0.075 -1.629,-0.233 -0.522,-0.155 -0.981,-0.388 -1.376,-0.703 -0.393,-0.31 -0.711,-0.698 -0.949,-1.154 -0.235,-0.457 -0.354,-0.994 -0.354,-1.603 h 2.152 c 0,0.288 0.051,0.551 0.155,0.794 0.105,0.244 0.259,0.448 0.454,0.617 0.192,0.172 0.422,0.307 0.689,0.404 0.269,0.094 0.561,0.147 0.887,0.147 0.349,0 0.66,-0.047 0.941,-0.141 0.28,-0.091 0.515,-0.233 0.706,-0.418 0.184,-0.174 0.328,-0.39 0.425,-0.651 0.1,-0.26 0.149,-0.556 0.149,-0.894 0,-0.376 -0.061,-0.7 -0.172,-0.972 -0.116,-0.271 -0.277,-0.493 -0.494,-0.675 -0.216,-0.172 -0.476,-0.299 -0.779,-0.39 -0.3,-0.086 -0.641,-0.13 -1.009,-0.13 H 38.97 v -1.694 h 1.282 z" />
		</g>
		<polyline
   id="In_Decor_3"
   fill="none"
   stroke="#231f20"
   stroke-width="0.6"
   stroke-miterlimit="10"
   points="15.885,623.061     15.885,637.423 20.752,642.499 60.885,642.499 65.752,637.423 65.752,623.061   " />
	</g>
	<g
   id="Out_Label_3">
		<polyline
   id="Out_Decor_3"
   fill="#1d76bb"
   points="16.71,682.982 16.71,750.789 21.577,755.858 60.06,755.858 64.927,750.789     64.927,682.982   " />
		<g
   id="g250">
			<path
   id="path248"
   fill="#ffffff"
   d="m 40.25,738.839 c 0.385,0 0.72,-0.055 1.006,-0.161 0.285,-0.102 0.525,-0.249 0.711,-0.443 0.173,-0.166 0.307,-0.376 0.399,-0.626 0.094,-0.249 0.141,-0.52 0.141,-0.808 0,-0.307 -0.044,-0.587 -0.133,-0.836 -0.083,-0.244 -0.212,-0.451 -0.382,-0.626 -0.167,-0.166 -0.379,-0.291 -0.635,-0.382 -0.255,-0.089 -0.544,-0.133 -0.875,-0.133 -0.296,0 -0.567,0.044 -0.814,0.13 -0.249,0.086 -0.465,0.21 -0.646,0.374 -0.184,0.161 -0.329,0.354 -0.435,0.584 -0.104,0.227 -0.158,0.484 -0.158,0.767 h -2.152 c 0,-0.526 0.105,-1.005 0.316,-1.44 0.209,-0.437 0.501,-0.819 0.872,-1.143 0.372,-0.318 0.811,-0.565 1.319,-0.75 0.507,-0.177 1.063,-0.268 1.669,-0.268 0.619,0 1.185,0.08 1.704,0.238 0.522,0.163 0.959,0.396 1.33,0.706 0.371,0.318 0.659,0.709 0.864,1.171 0.199,0.462 0.305,0.999 0.305,1.608 0,0.271 -0.044,0.543 -0.122,0.808 -0.08,0.271 -0.202,0.534 -0.365,0.783 -0.163,0.246 -0.365,0.476 -0.609,0.692 -0.249,0.216 -0.534,0.401 -0.866,0.545 0.39,0.133 0.72,0.305 0.994,0.52 0.271,0.213 0.498,0.451 0.67,0.717 0.177,0.269 0.299,0.559 0.376,0.866 0.078,0.31 0.116,0.631 0.116,0.958 0,0.615 -0.111,1.157 -0.332,1.633 -0.227,0.476 -0.534,0.88 -0.925,1.201 -0.393,0.332 -0.864,0.581 -1.399,0.753 -0.533,0.172 -1.116,0.257 -1.737,0.257 -0.563,0 -1.109,-0.075 -1.626,-0.235 -0.525,-0.155 -0.981,-0.388 -1.376,-0.7 -0.393,-0.313 -0.714,-0.695 -0.949,-1.154 -0.238,-0.46 -0.354,-0.997 -0.354,-1.606 H 38.3 c 0,0.288 0.054,0.554 0.159,0.797 0.105,0.243 0.259,0.448 0.454,0.617 0.19,0.174 0.419,0.307 0.689,0.404 0.266,0.094 0.561,0.147 0.887,0.147 0.345,0 0.657,-0.05 0.938,-0.144 0.28,-0.089 0.515,-0.232 0.705,-0.415 0.185,-0.177 0.329,-0.393 0.426,-0.651 0.1,-0.263 0.149,-0.556 0.149,-0.894 0,-0.376 -0.061,-0.703 -0.172,-0.974 -0.116,-0.269 -0.277,-0.493 -0.494,-0.675 -0.216,-0.172 -0.476,-0.299 -0.776,-0.388 -0.303,-0.089 -0.644,-0.133 -1.012,-0.133 h -1.287 v -1.691 z" />
		</g>
	</g>
	<g
   id="In_Label_4">
		<g
   id="g255">
			<path
   id="path253"
   fill="#000100"
   d="m 45.406,852.85 v 1.747 h -1.647 v 2.923 H 41.61 v -2.923 h -5.669 l -0.057,-1.323 5.661,-8.853 h 2.21 v 8.429 z m -3.796,0 v -5.547 l -0.256,0.465 -3.271,5.082 z" />
		</g>
		<polyline
   id="In_Decor_4"
   fill="none"
   stroke="#231f20"
   stroke-width="0.6"
   stroke-miterlimit="10"
   points="15.885,847.563     15.885,861.924 20.752,867.001 60.885,867.001 65.752,861.924 65.752,847.563   " />
	</g>
	<g
   id="Out_Label_4">
		<polyline
   id="Out_Decor_4"
   fill="#1d76bb"
   points="16.71,907.486 16.71,975.293 21.577,980.362 60.06,980.362 64.927,975.293     64.927,907.486   " />
		<g
   id="g262">
			<path
   id="path260"
   fill="#ffffff"
   d="m 45.403,966.194 v 1.747 h -1.647 v 2.923 h -2.148 v -2.923 h -5.667 l -0.057,-1.323 5.657,-8.853 h 2.212 v 8.429 z m -3.795,0 v -5.55 l -0.253,0.468 -3.273,5.082 z" />
		</g>
	</g>
<g
   id="g174"
   transform="matrix(0.13207713,0,0,0.13207713,35.971254,988.47701)"
   inkscape:label="Logo">
	<path
   d="M 345.60059,122.3999 H 288.01953 C 267.94434,84.833496 228.85254,58.964843 183.59961,57.657226 V 14.399902 H 176.3999 V 57.657226 C 131.14697,58.964843 92.055664,84.833984 71.981445,122.3999 H 14.400391 v 7.2002 h 54.025391 c -6.954102,15.37011 -10.825684,32.4331 -10.825684,50.40039 0,67.59912 54.800292,122.3999 122.399902,122.3999 67.59961,0 122.40039,-54.80078 122.40039,-122.3999 0,-17.96729 -3.87207,-35.03027 -10.82617,-50.40039 h 54.02637 z m -50.4004,57.60059 c 0,63.62353 -51.57714,115.20068 -115.20019,115.20068 -63.62354,0 -115.200195,-51.57715 -115.200195,-115.20068 0,-18.07569 4.16748,-35.17627 11.586914,-50.40039 H 100.7998 v 100.80029 h 40.8003 v -28.7998 h -12 V 122.3999 H 115.2002 100.79981 80.215332 C 99.571289,88.94043 135.27148,66.125 176.3999,64.861816 v 57.538574 h -10.7998 v 79.20019 l -12,-9.7e-4 v 28.7998 l 52.80029,9.8e-4 v -28.79981 h -12 V 122.40039 H 183.59961 V 64.861816 c 41.12793,1.262695 76.82812,24.078613 96.18457,57.538084 H 244.7998 v 4.9e-4 h -14.39941 v 79.20019 h -12 v 28.79981 h 40.7998 V 129.6001 h 24.41309 c 7.41992,15.22412 11.58691,32.3247 11.58691,50.40039 z"
   id="path172"
   inkscape:label="Shtatnov Logo" />
</g></g>
<title
   id="title425">components</title>








<g
   id="g66"
   transform="scale(0.35277256)">
	<path
   fill="#ffffff"
   d="M 8.719,22.971 8.262,24.444 H 7.539 L 9.375,18.756 H 9.98 l 1.805,5.688 h -0.719 l -0.449,-1.473 z m 1.707,-0.629 -0.75,-2.469 -0.762,2.469 z"
   id="path60" />
	<path
   fill="#ffffff"
   d="m 13.5,21.932 v 2.512 h -0.73 v -5.688 h 3.492 v 0.617 H 13.5 v 1.945 h 2.367 v 0.613 H 13.5 Z"
   id="path62" />
	<path
   fill="#ffffff"
   d="m 17.429,18.756 h 1.316 c 0.222,0.002 0.431,0.025 0.627,0.068 0.197,0.043 0.379,0.104 0.545,0.182 0.232,0.107 0.438,0.247 0.615,0.42 0.179,0.173 0.322,0.373 0.428,0.6 0.098,0.193 0.17,0.404 0.221,0.633 0.051,0.229 0.078,0.474 0.08,0.734 v 0.418 c 0,0.25 -0.023,0.487 -0.072,0.711 -0.047,0.224 -0.117,0.43 -0.209,0.617 -0.094,0.195 -0.212,0.373 -0.355,0.531 -0.143,0.159 -0.303,0.294 -0.48,0.406 -0.188,0.117 -0.398,0.207 -0.635,0.27 -0.235,0.063 -0.49,0.095 -0.764,0.098 H 17.43 v -5.688 z m 0.735,5.098 h 0.582 c 0.209,-0.002 0.398,-0.029 0.568,-0.078 0.171,-0.049 0.322,-0.12 0.455,-0.211 0.141,-0.094 0.263,-0.209 0.365,-0.346 0.104,-0.137 0.185,-0.29 0.244,-0.459 0.053,-0.138 0.092,-0.287 0.117,-0.447 0.026,-0.16 0.041,-0.328 0.043,-0.502 V 21.385 C 20.536,21.208 20.52,21.038 20.493,20.875 20.466,20.712 20.425,20.561 20.37,20.42 20.3,20.238 20.206,20.073 20.087,19.926 19.969,19.779 19.823,19.66 19.651,19.569 19.529,19.501 19.392,19.448 19.241,19.411 19.091,19.373 18.925,19.353 18.745,19.35 h -0.582 v 4.504 z"
   id="path64" />
</g>
<g
   inkscape:groupmode="layer"
   id="layer1"
   inkscape:label="components"
   style="display:none"
   transform="scale(0.35277256)"><circle
     id="Out_4"
     inkscape:label="Out4"
     fill="#0000ff"
     cx="14.4"
     cy="320.39999"
     r="10.63">
<title
   id="title295">Out4</title>
</circle><circle
     id="In_4"
     inkscape:label="In4"
     fill="#00ff00"
     cx="14.4"
     cy="280.79999"
     r="10.63">
<title
   id="title293">In4</title>
</circle><circle
     id="Out_3"
     inkscape:label="Out3"
     fill="#0000ff"
     cx="14.4"
     cy="241.2"
     r="10.63">
<title
   id="title291">Out3</title>
</circle><circle
     id="In_3"
     inkscape:label="In3"
     fill="#00ff00"
     cx="14.4"
     cy="201.60001"
     r="10.63">
<title
   id="title287">In3</title>
</circle><circle
     id="Out_2"
     inkscape:label="Out2"
     fill="#0000ff"
     cx="14.4"
     cy="162"
     r="10.63">
<title
   id="title289">Out2</title>
</circle><circle
     id="In_2"
     inkscape:label="In2"
     fill="#00ff00"
     cx="14.4"
     cy="122.4"
     r="10.63">
<title
   id="title285">In2</title>
</circle><circle
     id="Out_1"
     inkscape:label="Out1"
     fill="#0000ff"
     cx="14.4"
     cy="82.800003"
     r="10.63">
<title
   id="title283">Out1</title>
</circle><circle
     id="In_1"
     inkscape:label="In1"
     fill="#00ff00"
     cx="14.4"
     cy="43.200001"
     r="10.63">
<title
   id="title281">In1</title>
</circle></g><metadata
   id="metadata171"><rdf:RDF><cc:Work
       rdf:about=""><dc:title>components</dc:title></cc:Work></rdf:RDF></metadata></svg>
